<svg xmlns="http://www.w3.org/2000/svg" width="512" height="512"><circle cx="256" cy="796.362" r="256" transform="translate(0 -540.362)"/><path d="M104.78 161.568l-22.108 36.004L185 256 82.672 316.323l22.424 34.11 123.173-76.43v-36.005l-123.489-76.43zM429.328 301.48c0-40.11-24.32-57.797-66.008-70.43-34.741-10.739-44.532-16.423-44.532-30.32 0-14.212 12.949-21.476 32.53-21.476 17.687 0 35.373 6 50.217 18.318l24.319-28.109c-18.95-18.002-44.848-28.424-78.326-28.424-45.479 0-82.43 23.371-82.43 63.797 0 33.162 19.265 52.427 70.745 68.219 30.32 9.159 39.478 16.739 39.478 32.53 0 17.055-14.528 26.845-36.32 26.845-23.371 0-42.953-7.895-59.06-22.108l-26.213 29.056c18.318 18.003 45.163 31.583 86.536 31.583 55.902 0 89.064-28.424 89.064-69.482z" style="line-height:125%;-inkscape-font-specification:'Fira Code, Bold';text-align:start" font-weight="700" font-size="180" font-family="Fira Code" letter-spacing="0" word-spacing="0" fill="#f9f9f9"/></svg>